# xmcd
#
# Track frame offsets:
#	150
#	7200
#	28635
#	50995
#	70182
#	95557
#	114675
#	133910
#	152985
#	173822
#	192705
#
# Disc length: 3214 seconds
#
# Revision: 2
# Processed by: cddbd v1.5.1PL0 Copyright (c) Steve Scherf et al.
# Submitted via: dBpowerAMP V4.0
#
DISCID=a90c8c0b
DTITLE=NuFlavor - NuFlavor
DYEAR=1997
DGENRE=Pop/Funk
TTITLE0=Voices Of The Future
TTITLE1=Sweet Sexy Thing
TTITLE2=Heaven
TTITLE3=Baby Be There
TTITLE4=Soul To Soul
TTITLE5=Open Arms
TTITLE6=Havin' A Party
TTITLE7=For The Sex Of It
TTITLE8=Close 2 U (On And On)
TTITLE9=Unconditionally
TTITLE10=Come 'Round My Way and Sweet Sexy Thing (Remix, 'Hidden Track')
EXTD=09362-46408-20
EXTT0=
EXTT1=
EXTT2=
EXTT3=
EXTT4=
EXTT5=
EXTT6=
EXTT7=
EXTT8=
EXTT9=
EXTT10=
PLAYORDER=
